<?xml version="1.0" encoding="utf-8"?>
<svg xmlns="http://www.w3.org/2000/svg" xmlns:xlink="http://www.w3.org/1999/xlink" width="600" height="400" viewBox="0 0 2400 1600">
<defs>
  <clipPath id="clip160">
    <rect x="0" y="0" width="2400" height="1600"/>
  </clipPath>
</defs>
<path clip-path="url(#clip160)" d="M0 1600 L2400 1600 L2400 0 L0 0  Z" fill="#282a36" fill-rule="evenodd" fill-opacity="1"/>
<defs>
  <clipPath id="clip161">
    <rect x="480" y="0" width="1681" height="1600"/>
  </clipPath>
</defs>
<path clip-path="url(#clip160)" d="M447.244 1552.76 L1952.76 1552.76 L1952.76 47.2441 L447.244 47.2441  Z" fill="#30343b" fill-rule="evenodd" fill-opacity="1"/>
<defs>
  <clipPath id="clip162">
    <rect x="447" y="47" width="1507" height="1507"/>
  </clipPath>
</defs>
<polyline clip-path="url(#clip162)" style="stroke:#000000; stroke-linecap:round; stroke-linejoin:round; stroke-width:4; stroke-opacity:1; fill:none" points="1233.6,262.317 1233.51,273.071 1233.23,284.045 1232.79,295.223 1232.2,306.589 1231.47,318.127 1230.61,329.82 1229.64,341.652 1228.57,353.607 1227.42,365.668 1226.19,377.818 1224.9,390.042 1223.56,402.324 1222.2,414.646 1220.81,426.993 1219.41,439.348 1218.02,451.695 1216.66,464.017 1215.32,476.298 1214.03,488.522 1212.8,500.673 1211.65,512.734 1210.58,524.688 1209.61,536.52 1208.75,548.214 1208.02,559.751 1207.43,571.118 1206.99,582.296 1206.71,593.27 1206.62,604.023 "/>
<polyline clip-path="url(#clip162)" style="stroke:#000000; stroke-linecap:round; stroke-linejoin:round; stroke-width:4; stroke-opacity:1; fill:none" points="1206.62,604.023 1207.57,616.336 1210.34,628.212 1214.78,639.684 1220.77,650.784 1228.17,661.545 1236.84,671.998 1246.66,682.176 1257.48,692.112 1269.18,701.838 1281.61,711.386 1294.65,720.789 1308.16,730.078 1322,739.286 1336.05,748.446 1350.17,757.59 1364.21,766.75 1378.06,775.958 1391.57,785.248 1404.61,794.65 1417.04,804.198 1428.74,813.924 1439.56,823.86 1449.38,834.038 1458.05,844.492 1465.45,855.252 1471.44,866.352 1475.88,877.824 1478.64,889.7 1479.6,902.013 "/>
<polyline clip-path="url(#clip162)" style="stroke:#000000; stroke-linecap:round; stroke-linejoin:round; stroke-width:4; stroke-opacity:1; fill:none" points="1479.6,902.013 1479.55,915.691 1479.42,929.657 1479.2,943.891 1478.91,958.369 1478.56,973.072 1478.14,987.978 1477.66,1003.06 1477.14,1018.31 1476.58,1033.7 1475.98,1049.2 1475.35,1064.8 1474.7,1080.48 1474.03,1096.2 1473.35,1111.96 1472.67,1127.73 1471.99,1143.49 1471.32,1159.22 1470.67,1174.89 1470.04,1190.49 1469.44,1206 1468.88,1221.38 1468.35,1236.63 1467.88,1251.72 1467.46,1266.62 1467.11,1281.33 1466.82,1295.8 1466.6,1310.04 1466.47,1324 1466.42,1337.68 "/>
<polyline clip-path="url(#clip162)" style="stroke:#000000; stroke-linecap:round; stroke-linejoin:round; stroke-width:4; stroke-opacity:1; fill:none" points="1479.6,902.013 1480.5,913.921 1483.11,925.441 1487.31,936.601 1492.97,947.431 1499.97,957.958 1508.17,968.212 1517.45,978.221 1527.68,988.014 1538.74,997.62 1550.5,1007.07 1562.82,1016.39 1575.6,1025.6 1588.69,1034.75 1601.97,1043.85 1615.31,1052.94 1628.59,1062.04 1641.68,1071.19 1654.45,1080.41 1666.78,1089.73 1678.54,1099.17 1689.6,1108.78 1699.83,1118.57 1709.11,1128.58 1717.31,1138.84 1724.31,1149.36 1729.97,1160.19 1734.17,1171.35 1736.78,1182.87 1737.68,1194.78 "/>
<polyline clip-path="url(#clip162)" style="stroke:#000000; stroke-linecap:round; stroke-linejoin:round; stroke-width:4; stroke-opacity:1; fill:none" points="1206.62,604.023 1205.57,614.914 1202.51,625.082 1197.59,634.579 1190.96,643.46 1182.78,651.778 1173.18,659.586 1162.31,666.939 1150.34,673.89 1137.39,680.493 1123.63,686.8 1109.2,692.867 1094.25,698.746 1078.93,704.491 1063.38,710.155 1047.76,715.792 1032.21,721.457 1016.89,727.202 1001.94,733.081 987.511,739.147 973.749,745.455 960.805,752.057 948.827,759.008 937.964,766.361 928.364,774.17 920.176,782.488 913.549,791.368 908.632,800.866 905.572,811.033 904.519,821.924 "/>
<polyline clip-path="url(#clip162)" style="stroke:#000000; stroke-linecap:round; stroke-linejoin:round; stroke-width:4; stroke-opacity:1; fill:none" points="904.519,821.924 904.544,837.687 904.616,853.784 904.732,870.189 904.888,886.878 905.081,903.827 905.307,921.009 905.563,938.402 905.845,955.98 906.149,973.719 906.473,991.593 906.813,1009.58 907.165,1027.65 907.526,1045.78 907.892,1063.95 908.26,1082.14 908.626,1100.31 908.986,1118.44 909.338,1136.51 909.678,1154.5 910.002,1172.37 910.307,1190.11 910.589,1207.69 910.845,1225.08 911.071,1242.26 911.263,1259.21 911.419,1275.9 911.535,1292.31 911.607,1308.4 911.632,1324.17 "/>
<polyline clip-path="url(#clip162)" style="stroke:#000000; stroke-linecap:round; stroke-linejoin:round; stroke-width:4; stroke-opacity:1; fill:none" points="904.519,821.924 903.675,834.697 901.222,847.229 897.28,859.538 891.967,871.641 885.403,883.557 877.706,895.303 868.997,906.897 859.394,918.358 849.016,929.702 837.983,940.948 826.414,952.114 814.427,963.218 802.143,974.276 789.68,985.308 777.157,996.331 764.694,1007.36 752.409,1018.42 740.423,1029.53 728.854,1040.69 717.82,1051.94 707.443,1063.28 697.84,1074.74 689.13,1086.34 681.434,1098.08 674.87,1110 669.557,1122.1 665.614,1134.41 663.161,1146.94 662.317,1159.72 "/>
<path clip-path="url(#clip162)" d="M1317.51 262.317 L1317.24 257.888 L1316.45 253.487 L1315.13 249.142 L1313.3 244.88 L1310.96 240.728 L1308.13 236.713 L1304.84 232.859 L1301.09 229.192 L1296.91 225.735 L1292.34 222.508 L1287.39 219.534 L1282.11 216.829 L1276.51 214.413 L1270.65 212.299 L1264.55 210.501 L1258.26 209.031 L1251.81 207.898 L1245.24 207.109 L1238.6 206.669 L1231.93 206.581 L1225.27 206.846 L1218.66 207.46 L1212.15 208.422 L1205.77 209.725 L1199.57 211.36 L1193.59 213.317 L1187.85 215.584 L1182.41 218.146 L1177.29 220.988 L1172.53 224.091 L1168.15 227.436 L1164.18 231.001 L1160.66 234.764 L1157.59 238.702 L1155.01 242.788 L1152.92 246.999 L1151.35 251.306 L1150.29 255.682 L1149.76 260.101 L1149.76 264.534 L1150.29 268.952 L1151.35 273.329 L1152.92 277.636 L1155.01 281.846 L1157.59 285.933 L1160.66 289.87 L1164.18 293.633 L1168.15 297.199 L1172.53 300.543 L1177.29 303.646 L1182.41 306.488 L1187.85 309.05 L1193.59 311.317 L1199.57 313.275 L1205.77 314.91 L1212.15 316.212 L1218.66 317.174 L1225.27 317.789 L1231.93 318.053 L1238.6 317.965 L1245.24 317.525 L1251.81 316.736 L1258.26 315.603 L1264.55 314.133 L1270.65 312.336 L1276.51 310.222 L1282.11 307.805 L1287.39 305.101 L1292.34 302.126 L1296.91 298.9 L1301.09 295.442 L1304.84 291.775 L1308.13 287.922 L1310.96 283.906 L1313.3 279.755 L1315.13 275.493 L1316.45 271.147 L1317.24 266.746 L1317.51 262.317 L1317.51 262.317  Z" fill="#8be9fd" fill-rule="evenodd" fill-opacity="1"/>
<polyline clip-path="url(#clip162)" style="stroke:#000000; stroke-linecap:round; stroke-linejoin:round; stroke-width:4; stroke-opacity:1; fill:none" points="1317.51,262.317 1317.24,257.888 1316.45,253.487 1315.13,249.142 1313.3,244.88 1310.96,240.728 1308.13,236.713 1304.84,232.859 1301.09,229.192 1296.91,225.735 1292.34,222.508 1287.39,219.534 1282.11,216.829 1276.51,214.413 1270.65,212.299 1264.55,210.501 1258.26,209.031 1251.81,207.898 1245.24,207.109 1238.6,206.669 1231.93,206.581 1225.27,206.846 1218.66,207.46 1212.15,208.422 1205.77,209.725 1199.57,211.36 1193.59,213.317 1187.85,215.584 1182.41,218.146 1177.29,220.988 1172.53,224.091 1168.15,227.436 1164.18,231.001 1160.66,234.764 1157.59,238.702 1155.01,242.788 1152.92,246.999 1151.35,251.306 1150.29,255.682 1149.76,260.101 1149.76,264.534 1150.29,268.952 1151.35,273.329 1152.92,277.636 1155.01,281.846 1157.59,285.933 1160.66,289.87 1164.18,293.633 1168.15,297.199 1172.53,300.543 1177.29,303.646 1182.41,306.488 1187.85,309.05 1193.59,311.317 1199.57,313.275 1205.77,314.91 1212.15,316.212 1218.66,317.174 1225.27,317.789 1231.93,318.053 1238.6,317.965 1245.24,317.525 1251.81,316.736 1258.26,315.603 1264.55,314.133 1270.65,312.336 1276.51,310.222 1282.11,307.805 1287.39,305.101 1292.34,302.126 1296.91,298.9 1301.09,295.442 1304.84,291.775 1308.13,287.922 1310.96,283.906 1313.3,279.755 1315.13,275.493 1316.45,271.147 1317.24,266.746 1317.51,262.317 "/>
<path clip-path="url(#clip162)" d="M1352.71 604.023 L1352.25 599.594 L1350.87 595.193 L1348.57 590.848 L1345.38 586.586 L1341.31 582.434 L1336.39 578.419 L1330.65 574.566 L1324.12 570.899 L1316.86 567.441 L1308.89 564.214 L1300.28 561.24 L1291.07 558.536 L1281.34 556.119 L1271.13 554.005 L1260.51 552.208 L1249.55 550.738 L1238.32 549.605 L1226.89 548.816 L1215.33 548.376 L1203.72 548.288 L1192.12 548.552 L1180.62 549.167 L1169.28 550.129 L1158.17 551.431 L1147.38 553.066 L1136.95 555.023 L1126.97 557.29 L1117.49 559.853 L1108.58 562.694 L1100.28 565.797 L1092.66 569.142 L1085.76 572.707 L1079.62 576.471 L1074.29 580.408 L1069.79 584.495 L1066.15 588.705 L1063.41 593.012 L1061.57 597.389 L1060.65 601.807 L1060.65 606.24 L1061.57 610.658 L1063.41 615.035 L1066.15 619.342 L1069.79 623.552 L1074.29 627.639 L1079.62 631.576 L1085.76 635.34 L1092.66 638.905 L1100.28 642.249 L1108.58 645.352 L1117.49 648.194 L1126.97 650.757 L1136.95 653.024 L1147.38 654.981 L1158.17 656.616 L1169.28 657.918 L1180.62 658.88 L1192.12 659.495 L1203.72 659.759 L1215.33 659.671 L1226.89 659.231 L1238.32 658.442 L1249.55 657.309 L1260.51 655.839 L1271.13 654.042 L1281.34 651.928 L1291.07 649.511 L1300.28 646.807 L1308.89 643.832 L1316.86 640.606 L1324.12 637.148 L1330.65 633.481 L1336.39 629.628 L1341.31 625.613 L1345.38 621.461 L1348.57 617.199 L1350.87 612.854 L1352.25 608.453 L1352.71 604.023 L1352.71 604.023  Z" fill="#8be9fd" fill-rule="evenodd" fill-opacity="1"/>
<polyline clip-path="url(#clip162)" style="stroke:#000000; stroke-linecap:round; stroke-linejoin:round; stroke-width:4; stroke-opacity:1; fill:none" points="1352.71,604.023 1352.25,599.594 1350.87,595.193 1348.57,590.848 1345.38,586.586 1341.31,582.434 1336.39,578.419 1330.65,574.566 1324.12,570.899 1316.86,567.441 1308.89,564.214 1300.28,561.24 1291.07,558.536 1281.34,556.119 1271.13,554.005 1260.51,552.208 1249.55,550.738 1238.32,549.605 1226.89,548.816 1215.33,548.376 1203.72,548.288 1192.12,548.552 1180.62,549.167 1169.28,550.129 1158.17,551.431 1147.38,553.066 1136.95,555.023 1126.97,557.29 1117.49,559.853 1108.58,562.694 1100.28,565.797 1092.66,569.142 1085.76,572.707 1079.62,576.471 1074.29,580.408 1069.79,584.495 1066.15,588.705 1063.41,593.012 1061.57,597.389 1060.65,601.807 1060.65,606.24 1061.57,610.658 1063.41,615.035 1066.15,619.342 1069.79,623.552 1074.29,627.639 1079.62,631.576 1085.76,635.34 1092.66,638.905 1100.28,642.249 1108.58,645.352 1117.49,648.194 1126.97,650.757 1136.95,653.024 1147.38,654.981 1158.17,656.616 1169.28,657.918 1180.62,658.88 1192.12,659.495 1203.72,659.759 1215.33,659.671 1226.89,659.231 1238.32,658.442 1249.55,657.309 1260.51,655.839 1271.13,654.042 1281.34,651.928 1291.07,649.511 1300.28,646.807 1308.89,643.832 1316.86,640.606 1324.12,637.148 1330.65,633.481 1336.39,629.628 1341.31,625.613 1345.38,621.461 1348.57,617.199 1350.87,612.854 1352.25,608.453 1352.71,604.023 "/>
<path clip-path="url(#clip162)" d="M1585.22 902.013 L1584.88 897.584 L1583.88 893.183 L1582.22 888.837 L1579.92 884.575 L1576.97 880.424 L1573.42 876.408 L1569.27 872.555 L1564.55 868.888 L1559.29 865.43 L1553.53 862.204 L1547.31 859.229 L1540.65 856.525 L1533.61 854.108 L1526.23 851.994 L1518.56 850.197 L1510.63 848.727 L1502.51 847.594 L1494.25 846.805 L1485.89 846.365 L1477.5 846.277 L1469.11 846.541 L1460.8 847.156 L1452.6 848.118 L1444.57 849.42 L1436.76 851.055 L1429.23 853.013 L1422.01 855.28 L1415.16 857.842 L1408.71 860.684 L1402.72 863.787 L1397.21 867.131 L1392.22 870.697 L1387.78 874.46 L1383.92 878.397 L1380.67 882.484 L1378.04 886.694 L1376.06 891.001 L1374.73 895.378 L1374.06 899.796 L1374.06 904.229 L1374.73 908.648 L1376.06 913.024 L1378.04 917.331 L1380.67 921.541 L1383.92 925.628 L1387.78 929.566 L1392.22 933.329 L1397.21 936.894 L1402.72 940.239 L1408.71 943.342 L1415.16 946.183 L1422.01 948.746 L1429.23 951.013 L1436.76 952.97 L1444.57 954.605 L1452.6 955.908 L1460.8 956.869 L1469.11 957.484 L1477.5 957.749 L1485.89 957.661 L1494.25 957.221 L1502.51 956.432 L1510.63 955.299 L1518.56 953.829 L1526.23 952.031 L1533.61 949.917 L1540.65 947.501 L1547.31 944.796 L1553.53 941.822 L1559.29 938.595 L1564.55 935.138 L1569.27 931.47 L1573.42 927.617 L1576.97 923.602 L1579.92 919.45 L1582.22 915.188 L1583.88 910.843 L1584.88 906.442 L1585.22 902.013 L1585.22 902.013  Z" fill="#8be9fd" fill-rule="evenodd" fill-opacity="1"/>
<polyline clip-path="url(#clip162)" style="stroke:#000000; stroke-linecap:round; stroke-linejoin:round; stroke-width:4; stroke-opacity:1; fill:none" points="1585.22,902.013 1584.88,897.584 1583.88,893.183 1582.22,888.837 1579.92,884.575 1576.97,880.424 1573.42,876.408 1569.27,872.555 1564.55,868.888 1559.29,865.43 1553.53,862.204 1547.31,859.229 1540.65,856.525 1533.61,854.108 1526.23,851.994 1518.56,850.197 1510.63,848.727 1502.51,847.594 1494.25,846.805 1485.89,846.365 1477.5,846.277 1469.11,846.541 1460.8,847.156 1452.6,848.118 1444.57,849.42 1436.76,851.055 1429.23,853.013 1422.01,855.28 1415.16,857.842 1408.71,860.684 1402.72,863.787 1397.21,867.131 1392.22,870.697 1387.78,874.46 1383.92,878.397 1380.67,882.484 1378.04,886.694 1376.06,891.001 1374.73,895.378 1374.06,899.796 1374.06,904.229 1374.73,908.648 1376.06,913.024 1378.04,917.331 1380.67,921.541 1383.92,925.628 1387.78,929.566 1392.22,933.329 1397.21,936.894 1402.72,940.239 1408.71,943.342 1415.16,946.183 1422.01,948.746 1429.23,951.013 1436.76,952.97 1444.57,954.605 1452.6,955.908 1460.8,956.869 1469.11,957.484 1477.5,957.749 1485.89,957.661 1494.25,957.221 1502.51,956.432 1510.63,955.299 1518.56,953.829 1526.23,952.031 1533.61,949.917 1540.65,947.501 1547.31,944.796 1553.53,941.822 1559.29,938.595 1564.55,935.138 1569.27,931.47 1573.42,927.617 1576.97,923.602 1579.92,919.45 1582.22,915.188 1583.88,910.843 1584.88,906.442 1585.22,902.013 "/>
<path clip-path="url(#clip162)" d="M1612.51 1337.68 L1612.05 1333.25 L1610.67 1328.85 L1608.37 1324.51 L1605.18 1320.25 L1601.11 1316.09 L1596.19 1312.08 L1590.45 1308.23 L1583.93 1304.56 L1576.66 1301.1 L1568.69 1297.87 L1560.08 1294.9 L1550.88 1292.19 L1541.14 1289.78 L1530.93 1287.66 L1520.31 1285.87 L1509.35 1284.4 L1498.12 1283.26 L1486.69 1282.47 L1475.13 1282.03 L1463.52 1281.95 L1451.92 1282.21 L1440.42 1282.83 L1429.08 1283.79 L1417.98 1285.09 L1407.18 1286.73 L1396.76 1288.68 L1386.77 1290.95 L1377.3 1293.51 L1368.38 1296.35 L1360.09 1299.46 L1352.46 1302.8 L1345.56 1306.37 L1339.42 1310.13 L1334.09 1314.07 L1329.59 1318.15 L1325.96 1322.36 L1323.21 1326.67 L1321.37 1331.05 L1320.45 1335.47 L1320.45 1339.9 L1321.37 1344.32 L1323.21 1348.69 L1325.96 1353 L1329.59 1357.21 L1334.09 1361.3 L1339.42 1365.24 L1345.56 1369 L1352.46 1372.56 L1360.09 1375.91 L1368.38 1379.01 L1377.3 1381.85 L1386.77 1384.42 L1396.76 1386.68 L1407.18 1388.64 L1417.98 1390.28 L1429.08 1391.58 L1440.42 1392.54 L1451.92 1393.15 L1463.52 1393.42 L1475.13 1393.33 L1486.69 1392.89 L1498.12 1392.1 L1509.35 1390.97 L1520.31 1389.5 L1530.93 1387.7 L1541.14 1385.59 L1550.88 1383.17 L1560.08 1380.47 L1568.69 1377.49 L1576.66 1374.27 L1583.93 1370.81 L1590.45 1367.14 L1596.19 1363.29 L1601.11 1359.27 L1605.18 1355.12 L1608.37 1350.86 L1610.67 1346.51 L1612.05 1342.11 L1612.51 1337.68 L1612.51 1337.68  Z" fill="#8be9fd" fill-rule="evenodd" fill-opacity="1"/>
<polyline clip-path="url(#clip162)" style="stroke:#000000; stroke-linecap:round; stroke-linejoin:round; stroke-width:4; stroke-opacity:1; fill:none" points="1612.51,1337.68 1612.05,1333.25 1610.67,1328.85 1608.37,1324.51 1605.18,1320.25 1601.11,1316.09 1596.19,1312.08 1590.45,1308.23 1583.93,1304.56 1576.66,1301.1 1568.69,1297.87 1560.08,1294.9 1550.88,1292.19 1541.14,1289.78 1530.93,1287.66 1520.31,1285.87 1509.35,1284.4 1498.12,1283.26 1486.69,1282.47 1475.13,1282.03 1463.52,1281.95 1451.92,1282.21 1440.42,1282.83 1429.08,1283.79 1417.98,1285.09 1407.18,1286.73 1396.76,1288.68 1386.77,1290.95 1377.3,1293.51 1368.38,1296.35 1360.09,1299.46 1352.46,1302.8 1345.56,1306.37 1339.42,1310.13 1334.09,1314.07 1329.59,1318.15 1325.96,1322.36 1323.21,1326.67 1321.37,1331.05 1320.45,1335.47 1320.45,1339.9 1321.37,1344.32 1323.21,1348.69 1325.96,1353 1329.59,1357.21 1334.09,1361.3 1339.42,1365.24 1345.56,1369 1352.46,1372.56 1360.09,1375.91 1368.38,1379.01 1377.3,1381.85 1386.77,1384.42 1396.76,1386.68 1407.18,1388.64 1417.98,1390.28 1429.08,1391.58 1440.42,1392.54 1451.92,1393.15 1463.52,1393.42 1475.13,1393.33 1486.69,1392.89 1498.12,1392.1 1509.35,1390.97 1520.31,1389.5 1530.93,1387.7 1541.14,1385.59 1550.88,1383.17 1560.08,1380.47 1568.69,1377.49 1576.66,1374.27 1583.93,1370.81 1590.45,1367.14 1596.19,1363.29 1601.11,1359.27 1605.18,1355.12 1608.37,1350.86 1610.67,1346.51 1612.05,1342.11 1612.51,1337.68 "/>
<path clip-path="url(#clip162)" d="M1902.95 1194.78 L1902.42 1190.35 L1900.86 1185.95 L1898.27 1181.61 L1894.65 1177.34 L1890.05 1173.19 L1884.48 1169.18 L1877.99 1165.32 L1870.61 1161.66 L1862.39 1158.2 L1853.37 1154.97 L1843.63 1152 L1833.22 1149.29 L1822.2 1146.88 L1810.65 1144.76 L1798.64 1142.97 L1786.25 1141.5 L1773.54 1140.36 L1760.61 1139.57 L1747.54 1139.13 L1734.4 1139.05 L1721.28 1139.31 L1708.27 1139.92 L1695.44 1140.89 L1682.88 1142.19 L1670.66 1143.82 L1658.87 1145.78 L1647.58 1148.05 L1636.86 1150.61 L1626.77 1153.45 L1617.39 1156.56 L1608.77 1159.9 L1600.96 1163.47 L1594.02 1167.23 L1587.98 1171.17 L1582.89 1175.25 L1578.78 1179.46 L1575.67 1183.77 L1573.59 1188.15 L1572.55 1192.57 L1572.55 1197 L1573.59 1201.42 L1575.67 1205.79 L1578.78 1210.1 L1582.89 1214.31 L1587.98 1218.4 L1594.02 1222.33 L1600.96 1226.1 L1608.77 1229.66 L1617.39 1233.01 L1626.77 1236.11 L1636.86 1238.95 L1647.58 1241.51 L1658.87 1243.78 L1670.66 1245.74 L1682.88 1247.37 L1695.44 1248.68 L1708.27 1249.64 L1721.28 1250.25 L1734.4 1250.52 L1747.54 1250.43 L1760.61 1249.99 L1773.54 1249.2 L1786.25 1248.07 L1798.64 1246.6 L1810.65 1244.8 L1822.2 1242.69 L1833.22 1240.27 L1843.63 1237.57 L1853.37 1234.59 L1862.39 1231.36 L1870.61 1227.91 L1877.99 1224.24 L1884.48 1220.39 L1890.05 1216.37 L1894.65 1212.22 L1898.27 1207.96 L1900.86 1203.61 L1902.42 1199.21 L1902.95 1194.78 L1902.95 1194.78  Z" fill="#8be9fd" fill-rule="evenodd" fill-opacity="1"/>
<polyline clip-path="url(#clip162)" style="stroke:#000000; stroke-linecap:round; stroke-linejoin:round; stroke-width:4; stroke-opacity:1; fill:none" points="1902.95,1194.78 1902.42,1190.35 1900.86,1185.95 1898.27,1181.61 1894.65,1177.34 1890.05,1173.19 1884.48,1169.18 1877.99,1165.32 1870.61,1161.66 1862.39,1158.2 1853.37,1154.97 1843.63,1152 1833.22,1149.29 1822.2,1146.88 1810.65,1144.76 1798.64,1142.97 1786.25,1141.5 1773.54,1140.36 1760.61,1139.57 1747.54,1139.13 1734.4,1139.05 1721.28,1139.31 1708.27,1139.92 1695.44,1140.89 1682.88,1142.19 1670.66,1143.82 1658.87,1145.78 1647.58,1148.05 1636.86,1150.61 1626.77,1153.45 1617.39,1156.56 1608.77,1159.9 1600.96,1163.47 1594.02,1167.23 1587.98,1171.17 1582.89,1175.25 1578.78,1179.46 1575.67,1183.77 1573.59,1188.15 1572.55,1192.57 1572.55,1197 1573.59,1201.42 1575.67,1205.79 1578.78,1210.1 1582.89,1214.31 1587.98,1218.4 1594.02,1222.33 1600.96,1226.1 1608.77,1229.66 1617.39,1233.01 1626.77,1236.11 1636.86,1238.95 1647.58,1241.51 1658.87,1243.78 1670.66,1245.74 1682.88,1247.37 1695.44,1248.68 1708.27,1249.64 1721.28,1250.25 1734.4,1250.52 1747.54,1250.43 1760.61,1249.99 1773.54,1249.2 1786.25,1248.07 1798.64,1246.6 1810.65,1244.8 1822.2,1242.69 1833.22,1240.27 1843.63,1237.57 1853.37,1234.59 1862.39,1231.36 1870.61,1227.91 1877.99,1224.24 1884.48,1220.39 1890.05,1216.37 1894.65,1212.22 1898.27,1207.96 1900.86,1203.61 1902.42,1199.21 1902.95,1194.78 "/>
<path clip-path="url(#clip162)" d="M1030.78 821.924 L1030.38 817.495 L1029.19 813.094 L1027.21 808.748 L1024.45 804.486 L1020.93 800.335 L1016.68 796.32 L1011.71 792.466 L1006.08 788.799 L999.793 785.341 L992.909 782.115 L985.466 779.14 L977.511 776.436 L969.095 774.019 L960.27 771.906 L951.093 770.108 L941.622 768.638 L931.916 767.505 L922.037 766.716 L912.047 766.276 L902.009 766.188 L891.987 766.452 L882.045 767.067 L872.244 768.029 L862.648 769.332 L853.316 770.967 L844.309 772.924 L835.681 775.191 L827.489 777.753 L819.784 780.595 L812.615 783.698 L806.027 787.043 L800.061 790.608 L794.756 794.371 L790.145 798.308 L786.257 802.395 L783.117 806.605 L780.744 810.912 L779.154 815.289 L778.356 819.708 L778.356 824.14 L779.154 828.559 L780.744 832.935 L783.117 837.243 L786.257 841.453 L790.145 845.539 L794.756 849.477 L800.061 853.24 L806.027 856.805 L812.615 860.15 L819.784 863.253 L827.489 866.095 L835.681 868.657 L844.309 870.924 L853.316 872.881 L862.648 874.516 L872.244 875.819 L882.045 876.781 L891.987 877.396 L902.009 877.66 L912.047 877.572 L922.037 877.132 L931.916 876.343 L941.622 875.21 L951.093 873.74 L960.27 871.942 L969.095 869.828 L977.511 867.412 L985.466 864.708 L992.909 861.733 L999.793 858.507 L1006.08 855.049 L1011.71 851.382 L1016.68 847.528 L1020.93 843.513 L1024.45 839.361 L1027.21 835.099 L1029.19 830.754 L1030.38 826.353 L1030.78 821.924 L1030.78 821.924  Z" fill="#8be9fd" fill-rule="evenodd" fill-opacity="1"/>
<polyline clip-path="url(#clip162)" style="stroke:#000000; stroke-linecap:round; stroke-linejoin:round; stroke-width:4; stroke-opacity:1; fill:none" points="1030.78,821.924 1030.38,817.495 1029.19,813.094 1027.21,808.748 1024.45,804.486 1020.93,800.335 1016.68,796.32 1011.71,792.466 1006.08,788.799 999.793,785.341 992.909,782.115 985.466,779.14 977.511,776.436 969.095,774.019 960.27,771.906 951.093,770.108 941.622,768.638 931.916,767.505 922.037,766.716 912.047,766.276 902.009,766.188 891.987,766.452 882.045,767.067 872.244,768.029 862.648,769.332 853.316,770.967 844.309,772.924 835.681,775.191 827.489,777.753 819.784,780.595 812.615,783.698 806.027,787.043 800.061,790.608 794.756,794.371 790.145,798.308 786.257,802.395 783.117,806.605 780.744,810.912 779.154,815.289 778.356,819.708 778.356,824.14 779.154,828.559 780.744,832.935 783.117,837.243 786.257,841.453 790.145,845.539 794.756,849.477 800.061,853.24 806.027,856.805 812.615,860.15 819.784,863.253 827.489,866.095 835.681,868.657 844.309,870.924 853.316,872.881 862.648,874.516 872.244,875.819 882.045,876.781 891.987,877.396 902.009,877.66 912.047,877.572 922.037,877.132 931.916,876.343 941.622,875.21 951.093,873.74 960.27,871.942 969.095,869.828 977.511,867.412 985.466,864.708 992.909,861.733 999.793,858.507 1006.08,855.049 1011.71,851.382 1016.68,847.528 1020.93,843.513 1024.45,839.361 1027.21,835.099 1029.19,830.754 1030.38,826.353 1030.78,821.924 "/>
<path clip-path="url(#clip162)" d="M1017.25 1324.17 L1016.92 1319.74 L1015.92 1315.34 L1014.26 1310.99 L1011.95 1306.73 L1009.01 1302.58 L1005.45 1298.56 L1001.3 1294.71 L996.585 1291.04 L991.33 1287.58 L985.571 1284.36 L979.345 1281.38 L972.691 1278.68 L965.65 1276.26 L958.268 1274.15 L950.592 1272.35 L942.669 1270.88 L934.55 1269.75 L926.285 1268.96 L917.929 1268.52 L909.532 1268.43 L901.149 1268.7 L892.832 1269.31 L884.634 1270.27 L876.606 1271.57 L868.8 1273.21 L861.265 1275.17 L854.048 1277.43 L847.195 1280 L840.75 1282.84 L834.753 1285.94 L829.242 1289.29 L824.252 1292.85 L819.814 1296.61 L815.957 1300.55 L812.704 1304.64 L810.077 1308.85 L808.092 1313.16 L806.762 1317.53 L806.095 1321.95 L806.095 1326.38 L806.762 1330.8 L808.092 1335.18 L810.077 1339.49 L812.704 1343.7 L815.957 1347.78 L819.814 1351.72 L824.252 1355.48 L829.242 1359.05 L834.753 1362.39 L840.75 1365.5 L847.195 1368.34 L854.048 1370.9 L861.265 1373.17 L868.8 1375.12 L876.606 1376.76 L884.634 1378.06 L892.832 1379.02 L901.149 1379.64 L909.532 1379.9 L917.929 1379.81 L926.285 1379.37 L934.55 1378.59 L942.669 1377.45 L950.592 1375.98 L958.268 1374.19 L965.65 1372.07 L972.691 1369.65 L979.345 1366.95 L985.571 1363.98 L991.33 1360.75 L996.585 1357.29 L1001.3 1353.62 L1005.45 1349.77 L1009.01 1345.76 L1011.95 1341.6 L1014.26 1337.34 L1015.92 1333 L1016.92 1328.6 L1017.25 1324.17 L1017.25 1324.17  Z" fill="#8be9fd" fill-rule="evenodd" fill-opacity="1"/>
<polyline clip-path="url(#clip162)" style="stroke:#000000; stroke-linecap:round; stroke-linejoin:round; stroke-width:4; stroke-opacity:1; fill:none" points="1017.25,1324.17 1016.92,1319.74 1015.92,1315.34 1014.26,1310.99 1011.95,1306.73 1009.01,1302.58 1005.45,1298.56 1001.3,1294.71 996.585,1291.04 991.33,1287.58 985.571,1284.36 979.345,1281.38 972.691,1278.68 965.65,1276.26 958.268,1274.15 950.592,1272.35 942.669,1270.88 934.55,1269.75 926.285,1268.96 917.929,1268.52 909.532,1268.43 901.149,1268.7 892.832,1269.31 884.634,1270.27 876.606,1271.57 868.8,1273.21 861.265,1275.17 854.048,1277.43 847.195,1280 840.75,1282.84 834.753,1285.94 829.242,1289.29 824.252,1292.85 819.814,1296.61 815.957,1300.55 812.704,1304.64 810.077,1308.85 808.092,1313.16 806.762,1317.53 806.095,1321.95 806.095,1326.38 806.762,1330.8 808.092,1335.18 810.077,1339.49 812.704,1343.7 815.957,1347.78 819.814,1351.72 824.252,1355.48 829.242,1359.05 834.753,1362.39 840.75,1365.5 847.195,1368.34 854.048,1370.9 861.265,1373.17 868.8,1375.12 876.606,1376.76 884.634,1378.06 892.832,1379.02 901.149,1379.64 909.532,1379.9 917.929,1379.81 926.285,1379.37 934.55,1378.59 942.669,1377.45 950.592,1375.98 958.268,1374.19 965.65,1372.07 972.691,1369.65 979.345,1366.95 985.571,1363.98 991.33,1360.75 996.585,1357.29 1001.3,1353.62 1005.45,1349.77 1009.01,1345.76 1011.95,1341.6 1014.26,1337.34 1015.92,1333 1016.92,1328.6 1017.25,1324.17 "/>
<path clip-path="url(#clip162)" d="M767.938 1159.72 L767.604 1155.29 L766.605 1150.89 L764.946 1146.54 L762.638 1142.28 L759.696 1138.13 L756.138 1134.11 L751.987 1130.26 L747.27 1126.59 L742.015 1123.13 L736.256 1119.91 L730.03 1116.93 L723.376 1114.23 L716.335 1111.81 L708.954 1109.7 L701.277 1107.9 L693.354 1106.43 L685.235 1105.3 L676.971 1104.51 L668.614 1104.07 L660.217 1103.98 L651.834 1104.24 L643.517 1104.86 L635.319 1105.82 L627.291 1107.12 L619.485 1108.76 L611.95 1110.72 L604.733 1112.98 L597.881 1115.54 L591.435 1118.39 L585.438 1121.49 L579.927 1124.83 L574.937 1128.4 L570.499 1132.16 L566.642 1136.1 L563.389 1140.19 L560.762 1144.4 L558.777 1148.7 L557.447 1153.08 L556.78 1157.5 L556.78 1161.93 L557.447 1166.35 L558.777 1170.73 L560.762 1175.03 L563.389 1179.24 L566.642 1183.33 L570.499 1187.27 L574.937 1191.03 L579.927 1194.6 L585.438 1197.94 L591.435 1201.04 L597.881 1203.89 L604.733 1206.45 L611.95 1208.72 L619.485 1210.67 L627.291 1212.31 L635.319 1213.61 L643.517 1214.57 L651.834 1215.19 L660.217 1215.45 L668.614 1215.36 L676.971 1214.92 L685.235 1214.13 L693.354 1213 L701.277 1211.53 L708.954 1209.73 L716.335 1207.62 L723.376 1205.2 L730.03 1202.5 L736.256 1199.52 L742.015 1196.3 L747.27 1192.84 L751.987 1189.17 L756.138 1185.32 L759.696 1181.3 L762.638 1177.15 L764.946 1172.89 L766.605 1168.55 L767.604 1164.14 L767.938 1159.72 L767.938 1159.72  Z" fill="#8be9fd" fill-rule="evenodd" fill-opacity="1"/>
<polyline clip-path="url(#clip162)" style="stroke:#000000; stroke-linecap:round; stroke-linejoin:round; stroke-width:4; stroke-opacity:1; fill:none" points="767.938,1159.72 767.604,1155.29 766.605,1150.89 764.946,1146.54 762.638,1142.28 759.696,1138.13 756.138,1134.11 751.987,1130.26 747.27,1126.59 742.015,1123.13 736.256,1119.91 730.03,1116.93 723.376,1114.23 716.335,1111.81 708.954,1109.7 701.277,1107.9 693.354,1106.43 685.235,1105.3 676.971,1104.51 668.614,1104.07 660.217,1103.98 651.834,1104.24 643.517,1104.86 635.319,1105.82 627.291,1107.12 619.485,1108.76 611.95,1110.72 604.733,1112.98 597.881,1115.54 591.435,1118.39 585.438,1121.49 579.927,1124.83 574.937,1128.4 570.499,1132.16 566.642,1136.1 563.389,1140.19 560.762,1144.4 558.777,1148.7 557.447,1153.08 556.78,1157.5 556.78,1161.93 557.447,1166.35 558.777,1170.73 560.762,1175.03 563.389,1179.24 566.642,1183.33 570.499,1187.27 574.937,1191.03 579.927,1194.6 585.438,1197.94 591.435,1201.04 597.881,1203.89 604.733,1206.45 611.95,1208.72 619.485,1210.67 627.291,1212.31 635.319,1213.61 643.517,1214.57 651.834,1215.19 660.217,1215.45 668.614,1215.36 676.971,1214.92 685.235,1214.13 693.354,1213 701.277,1211.53 708.954,1209.73 716.335,1207.62 723.376,1205.2 730.03,1202.5 736.256,1199.52 742.015,1196.3 747.27,1192.84 751.987,1189.17 756.138,1185.32 759.696,1181.3 762.638,1177.15 764.946,1172.89 766.605,1168.55 767.604,1164.14 767.938,1159.72 "/>
<circle clip-path="url(#clip162)" style="fill:#8be9fd; stroke:none; fill-opacity:0" cx="1233.6" cy="262.317" r="2"/>
<circle clip-path="url(#clip162)" style="fill:#8be9fd; stroke:none; fill-opacity:0" cx="1206.62" cy="604.023" r="2"/>
<circle clip-path="url(#clip162)" style="fill:#8be9fd; stroke:none; fill-opacity:0" cx="1479.6" cy="902.013" r="2"/>
<circle clip-path="url(#clip162)" style="fill:#8be9fd; stroke:none; fill-opacity:0" cx="1466.42" cy="1337.68" r="2"/>
<circle clip-path="url(#clip162)" style="fill:#8be9fd; stroke:none; fill-opacity:0" cx="1737.68" cy="1194.78" r="2"/>
<circle clip-path="url(#clip162)" style="fill:#8be9fd; stroke:none; fill-opacity:0" cx="904.519" cy="821.924" r="2"/>
<circle clip-path="url(#clip162)" style="fill:#8be9fd; stroke:none; fill-opacity:0" cx="911.632" cy="1324.17" r="2"/>
<circle clip-path="url(#clip162)" style="fill:#8be9fd; stroke:none; fill-opacity:0" cx="662.317" cy="1159.72" r="2"/>
<path clip-path="url(#clip160)" d="M1197.92 246.475 L1189.99 267.974 L1205.88 267.974 L1197.92 246.475 M1194.62 240.717 L1201.25 240.717 L1217.71 283.917 L1211.64 283.917 L1207.7 272.835 L1188.23 272.835 L1184.29 283.917 L1178.13 283.917 L1194.62 240.717 Z" fill="#000000" fill-rule="nonzero" fill-opacity="1" /><path clip-path="url(#clip160)" d="M1250.73 264.357 L1250.73 283.917 L1245.41 283.917 L1245.41 264.531 Q1245.41 259.93 1243.61 257.644 Q1241.82 255.358 1238.23 255.358 Q1233.92 255.358 1231.43 258.107 Q1228.94 260.856 1228.94 265.601 L1228.94 283.917 L1223.59 283.917 L1223.59 251.51 L1228.94 251.51 L1228.94 256.545 Q1230.85 253.622 1233.43 252.175 Q1236.03 250.729 1239.42 250.729 Q1245 250.729 1247.86 254.201 Q1250.73 257.644 1250.73 264.357 Z" fill="#000000" fill-rule="nonzero" fill-opacity="1" /><path clip-path="url(#clip160)" d="M1274.83 286.926 Q1272.57 292.713 1270.43 294.478 Q1268.29 296.244 1264.7 296.244 L1260.45 296.244 L1260.45 291.788 L1263.58 291.788 Q1265.78 291.788 1266.99 290.746 Q1268.21 289.704 1269.68 285.827 L1270.64 283.396 L1257.53 251.51 L1263.17 251.51 L1273.3 276.857 L1283.43 251.51 L1289.07 251.51 L1274.83 286.926 Z" fill="#000000" fill-rule="nonzero" fill-opacity="1" /><path clip-path="url(#clip160)" d="M1139.29 586.388 Q1132.92 586.388 1129.16 591.133 Q1125.43 595.878 1125.43 604.067 Q1125.43 612.227 1129.16 616.972 Q1132.92 621.717 1139.29 621.717 Q1145.65 621.717 1149.36 616.972 Q1153.09 612.227 1153.09 604.067 Q1153.09 595.878 1149.36 591.133 Q1145.65 586.388 1139.29 586.388 M1147.48 624.842 L1155.17 633.262 L1148.11 633.262 L1141.72 626.347 Q1140.76 626.405 1140.24 626.434 Q1139.75 626.463 1139.29 626.463 Q1130.17 626.463 1124.71 620.386 Q1119.27 614.281 1119.27 604.067 Q1119.27 593.824 1124.71 587.748 Q1130.17 581.642 1139.29 581.642 Q1148.37 581.642 1153.81 587.748 Q1159.25 593.824 1159.25 604.067 Q1159.25 611.59 1156.22 616.943 Q1153.21 622.296 1147.48 624.842 Z" fill="#000000" fill-rule="nonzero" fill-opacity="1" /><path clip-path="url(#clip160)" d="M1168.4 582.423 L1193.22 582.423 L1193.22 587.342 L1174.24 587.342 L1174.24 600.074 L1191.37 600.074 L1191.37 604.993 L1174.24 604.993 L1174.24 625.623 L1168.4 625.623 L1168.4 582.423 Z" fill="#000000" fill-rule="nonzero" fill-opacity="1" /><path clip-path="url(#clip160)" d="M1197.94 593.216 L1203.26 593.216 L1203.26 625.623 L1197.94 625.623 L1197.94 593.216 M1197.94 580.601 L1203.26 580.601 L1203.26 587.342 L1197.94 587.342 L1197.94 580.601 Z" fill="#000000" fill-rule="nonzero" fill-opacity="1" /><path clip-path="url(#clip160)" d="M1242.12 608.089 L1242.12 610.693 L1217.64 610.693 Q1217.99 616.191 1220.94 619.084 Q1223.92 621.949 1229.22 621.949 Q1232.29 621.949 1235.15 621.196 Q1238.04 620.444 1240.88 618.939 L1240.88 623.974 Q1238.02 625.189 1235.01 625.826 Q1232 626.463 1228.9 626.463 Q1221.15 626.463 1216.6 621.949 Q1212.09 617.435 1212.09 609.738 Q1212.09 601.781 1216.37 597.122 Q1220.68 592.435 1227.97 592.435 Q1234.51 592.435 1238.3 596.659 Q1242.12 600.855 1242.12 608.089 M1236.8 606.526 Q1236.74 602.157 1234.34 599.553 Q1231.97 596.949 1228.03 596.949 Q1223.58 596.949 1220.89 599.466 Q1218.22 601.984 1217.82 606.555 L1236.8 606.526 Z" fill="#000000" fill-rule="nonzero" fill-opacity="1" /><path clip-path="url(#clip160)" d="M1250.86 580.601 L1256.19 580.601 L1256.19 625.623 L1250.86 625.623 L1250.86 580.601 Z" fill="#000000" fill-rule="nonzero" fill-opacity="1" /><path clip-path="url(#clip160)" d="M1288.65 598.135 L1288.65 580.601 L1293.98 580.601 L1293.98 625.623 L1288.65 625.623 L1288.65 620.762 Q1286.97 623.656 1284.4 625.074 Q1281.85 626.463 1278.26 626.463 Q1272.39 626.463 1268.69 621.775 Q1265.01 617.088 1265.01 609.449 Q1265.01 601.81 1268.69 597.122 Q1272.39 592.435 1278.26 592.435 Q1281.85 592.435 1284.4 593.853 Q1286.97 595.242 1288.65 598.135 M1270.51 609.449 Q1270.51 615.323 1272.91 618.679 Q1275.34 622.007 1279.57 622.007 Q1283.79 622.007 1286.22 618.679 Q1288.65 615.323 1288.65 609.449 Q1288.65 603.575 1286.22 600.247 Q1283.79 596.891 1279.57 596.891 Q1275.34 596.891 1272.91 600.247 Q1270.51 603.575 1270.51 609.449 Z" fill="#000000" fill-rule="nonzero" fill-opacity="1" /><path clip-path="url(#clip160)" d="M1415.27 884.377 Q1408.91 884.377 1405.15 889.122 Q1401.41 893.868 1401.41 902.056 Q1401.41 910.216 1405.15 914.961 Q1408.91 919.706 1415.27 919.706 Q1421.64 919.706 1425.34 914.961 Q1429.08 910.216 1429.08 902.056 Q1429.08 893.868 1425.34 889.122 Q1421.64 884.377 1415.27 884.377 M1423.46 922.831 L1431.16 931.252 L1424.1 931.252 L1417.7 924.336 Q1416.75 924.394 1416.23 924.423 Q1415.74 924.452 1415.27 924.452 Q1406.16 924.452 1400.69 918.375 Q1395.25 912.27 1395.25 902.056 Q1395.25 891.813 1400.69 885.737 Q1406.16 879.631 1415.27 879.631 Q1424.36 879.631 1429.8 885.737 Q1435.24 891.813 1435.24 902.056 Q1435.24 909.579 1432.2 914.932 Q1429.19 920.285 1423.46 922.831 Z" fill="#000000" fill-rule="nonzero" fill-opacity="1" /><path clip-path="url(#clip160)" d="M1470.28 881.831 L1470.28 887.531 Q1466.95 885.939 1464 885.158 Q1461.05 884.377 1458.3 884.377 Q1453.53 884.377 1450.92 886.229 Q1448.35 888.08 1448.35 891.495 Q1448.35 894.359 1450.05 895.835 Q1451.79 897.282 1456.59 898.179 L1460.12 898.902 Q1466.66 900.146 1469.76 903.3 Q1472.88 906.425 1472.88 911.691 Q1472.88 917.97 1468.66 921.211 Q1464.46 924.452 1456.33 924.452 Q1453.26 924.452 1449.79 923.757 Q1446.35 923.063 1442.65 921.703 L1442.65 915.685 Q1446.2 917.681 1449.62 918.694 Q1453.03 919.706 1456.33 919.706 Q1461.34 919.706 1464.06 917.739 Q1466.78 915.771 1466.78 912.126 Q1466.78 908.943 1464.81 907.149 Q1462.87 905.355 1458.42 904.458 L1454.86 903.763 Q1448.32 902.461 1445.39 899.683 Q1442.47 896.906 1442.47 891.958 Q1442.47 886.229 1446.49 882.93 Q1450.55 879.631 1457.63 879.631 Q1460.67 879.631 1463.83 880.181 Q1466.98 880.731 1470.28 881.831 Z" fill="#000000" fill-rule="nonzero" fill-opacity="1" /><path clip-path="url(#clip160)" d="M1495.25 926.622 Q1492.99 932.409 1490.85 934.174 Q1488.71 935.939 1485.12 935.939 L1480.87 935.939 L1480.87 931.483 L1483.99 931.483 Q1486.19 931.483 1487.41 930.441 Q1488.62 929.4 1490.1 925.522 L1491.05 923.092 L1477.95 891.205 L1483.59 891.205 L1493.72 916.553 L1503.84 891.205 L1509.49 891.205 L1495.25 926.622 Z" fill="#000000" fill-rule="nonzero" fill-opacity="1" /><path clip-path="url(#clip160)" d="M1542.07 897.427 Q1544.06 893.839 1546.84 892.131 Q1549.62 890.424 1553.38 890.424 Q1558.44 890.424 1561.19 893.983 Q1563.94 897.513 1563.94 904.053 L1563.94 923.613 L1558.59 923.613 L1558.59 904.226 Q1558.59 899.568 1556.94 897.311 Q1555.29 895.054 1551.9 895.054 Q1547.77 895.054 1545.37 897.803 Q1542.96 900.551 1542.96 905.297 L1542.96 923.613 L1537.61 923.613 L1537.61 904.226 Q1537.61 899.539 1535.96 897.311 Q1534.31 895.054 1530.87 895.054 Q1526.79 895.054 1524.39 897.832 Q1521.99 900.58 1521.99 905.297 L1521.99 923.613 L1516.63 923.613 L1516.63 891.205 L1521.99 891.205 L1521.99 896.24 Q1523.81 893.26 1526.35 891.842 Q1528.9 890.424 1532.4 890.424 Q1535.93 890.424 1538.39 892.218 Q1540.88 894.012 1542.07 897.427 Z" fill="#000000" fill-rule="nonzero" fill-opacity="1" /><path clip-path="url(#clip160)" d="M1406.05 1319.41 L1406.05 1325.57 Q1403.1 1322.82 1399.74 1321.46 Q1396.41 1320.1 1392.65 1320.1 Q1385.25 1320.1 1381.31 1324.65 Q1377.38 1329.16 1377.38 1337.73 Q1377.38 1346.26 1381.31 1350.8 Q1385.25 1355.32 1392.65 1355.32 Q1396.41 1355.32 1399.74 1353.96 Q1403.1 1352.6 1406.05 1349.85 L1406.05 1355.96 Q1402.98 1358.04 1399.54 1359.08 Q1396.13 1360.12 1392.31 1360.12 Q1382.5 1360.12 1376.85 1354.13 Q1371.21 1348.11 1371.21 1337.73 Q1371.21 1327.31 1376.85 1321.32 Q1382.5 1315.3 1392.31 1315.3 Q1396.18 1315.3 1399.6 1316.34 Q1403.04 1317.36 1406.05 1319.41 Z" fill="#000000" fill-rule="nonzero" fill-opacity="1" /><path clip-path="url(#clip160)" d="M1433.62 1331.85 Q1432.73 1331.33 1431.66 1331.1 Q1430.62 1330.84 1429.34 1330.84 Q1424.83 1330.84 1422.4 1333.79 Q1420 1336.71 1420 1342.21 L1420 1359.28 L1414.64 1359.28 L1414.64 1326.88 L1420 1326.88 L1420 1331.91 Q1421.67 1328.96 1424.37 1327.54 Q1427.06 1326.09 1430.91 1326.09 Q1431.45 1326.09 1432.12 1326.18 Q1432.79 1326.24 1433.6 1326.38 L1433.62 1331.85 Z" fill="#000000" fill-rule="nonzero" fill-opacity="1" /><path clip-path="url(#clip160)" d="M1465.63 1341.75 L1465.63 1344.35 L1441.15 1344.35 Q1441.5 1349.85 1444.45 1352.74 Q1447.43 1355.61 1452.72 1355.61 Q1455.79 1355.61 1458.65 1354.86 Q1461.55 1354.1 1464.38 1352.6 L1464.38 1357.63 Q1461.52 1358.85 1458.51 1359.49 Q1455.5 1360.12 1452.4 1360.12 Q1444.65 1360.12 1440.11 1355.61 Q1435.59 1351.09 1435.59 1343.4 Q1435.59 1335.44 1439.87 1330.78 Q1444.19 1326.09 1451.48 1326.09 Q1458.02 1326.09 1461.81 1330.32 Q1465.63 1334.51 1465.63 1341.75 M1460.3 1340.19 Q1460.25 1335.82 1457.84 1333.21 Q1455.47 1330.61 1451.54 1330.61 Q1447.08 1330.61 1444.39 1333.13 Q1441.73 1335.64 1441.32 1340.21 L1460.3 1340.19 Z" fill="#000000" fill-rule="nonzero" fill-opacity="1" /><path clip-path="url(#clip160)" d="M1489.09 1342.99 Q1482.64 1342.99 1480.15 1344.47 Q1477.66 1345.94 1477.66 1349.5 Q1477.66 1352.34 1479.52 1354.02 Q1481.4 1355.67 1484.61 1355.67 Q1489.04 1355.67 1491.7 1352.54 Q1494.39 1349.39 1494.39 1344.18 L1494.39 1342.99 L1489.09 1342.99 M1499.71 1340.79 L1499.71 1359.28 L1494.39 1359.28 L1494.39 1354.36 Q1492.57 1357.32 1489.85 1358.73 Q1487.13 1360.12 1483.19 1360.12 Q1478.21 1360.12 1475.26 1357.34 Q1472.34 1354.54 1472.34 1349.85 Q1472.34 1344.38 1475.99 1341.6 Q1479.66 1338.83 1486.92 1338.83 L1494.39 1338.83 L1494.39 1338.3 Q1494.39 1334.63 1491.96 1332.63 Q1489.56 1330.61 1485.19 1330.61 Q1482.41 1330.61 1479.78 1331.27 Q1477.14 1331.94 1474.71 1333.27 L1474.71 1328.35 Q1477.64 1327.22 1480.38 1326.67 Q1483.13 1326.09 1485.74 1326.09 Q1492.77 1326.09 1496.24 1329.74 Q1499.71 1333.39 1499.71 1340.79 Z" fill="#000000" fill-rule="nonzero" fill-opacity="1" /><path clip-path="url(#clip160)" d="M1515.95 1317.67 L1515.95 1326.88 L1526.91 1326.88 L1526.91 1331.01 L1515.95 1331.01 L1515.95 1348.61 Q1515.95 1352.57 1517.02 1353.7 Q1518.12 1354.83 1521.44 1354.83 L1526.91 1354.83 L1526.91 1359.28 L1521.44 1359.28 Q1515.28 1359.28 1512.94 1357 Q1510.59 1354.68 1510.59 1348.61 L1510.59 1331.01 L1506.69 1331.01 L1506.69 1326.88 L1510.59 1326.88 L1510.59 1317.67 L1515.95 1317.67 Z" fill="#000000" fill-rule="nonzero" fill-opacity="1" /><path clip-path="url(#clip160)" d="M1561.63 1341.75 L1561.63 1344.35 L1537.15 1344.35 Q1537.5 1349.85 1540.45 1352.74 Q1543.43 1355.61 1548.73 1355.61 Q1551.8 1355.61 1554.66 1354.86 Q1557.55 1354.1 1560.39 1352.6 L1560.39 1357.63 Q1557.52 1358.85 1554.52 1359.49 Q1551.51 1360.12 1548.41 1360.12 Q1540.66 1360.12 1536.11 1355.61 Q1531.6 1351.09 1531.6 1343.4 Q1531.6 1335.44 1535.88 1330.78 Q1540.19 1326.09 1547.48 1326.09 Q1554.02 1326.09 1557.81 1330.32 Q1561.63 1334.51 1561.63 1341.75 M1556.31 1340.19 Q1556.25 1335.82 1553.85 1333.21 Q1551.48 1330.61 1547.54 1330.61 Q1543.09 1330.61 1540.4 1333.13 Q1537.73 1335.64 1537.33 1340.21 L1556.31 1340.19 Z" fill="#000000" fill-rule="nonzero" fill-opacity="1" /><path clip-path="url(#clip160)" d="M1632.03 1177.98 L1632.03 1211.58 L1639.09 1211.58 Q1648.03 1211.58 1652.17 1207.53 Q1656.33 1203.48 1656.33 1194.74 Q1656.33 1186.06 1652.17 1182.04 Q1648.03 1177.98 1639.09 1177.98 L1632.03 1177.98 M1626.18 1173.18 L1638.19 1173.18 Q1650.75 1173.18 1656.62 1178.42 Q1662.5 1183.63 1662.5 1194.74 Q1662.5 1205.91 1656.59 1211.14 Q1650.69 1216.38 1638.19 1216.38 L1626.18 1216.38 L1626.18 1173.18 Z" fill="#000000" fill-rule="nonzero" fill-opacity="1" /><path clip-path="url(#clip160)" d="M1699.3 1198.85 L1699.3 1201.45 L1674.82 1201.45 Q1675.17 1206.95 1678.12 1209.84 Q1681.1 1212.71 1686.4 1212.71 Q1689.46 1212.71 1692.33 1211.95 Q1695.22 1211.2 1698.06 1209.7 L1698.06 1214.73 Q1695.19 1215.95 1692.18 1216.58 Q1689.17 1217.22 1686.08 1217.22 Q1678.32 1217.22 1673.78 1212.71 Q1669.27 1208.19 1669.27 1200.5 Q1669.27 1192.54 1673.55 1187.88 Q1677.86 1183.19 1685.15 1183.19 Q1691.69 1183.19 1695.48 1187.42 Q1699.3 1191.61 1699.3 1198.85 M1693.98 1197.28 Q1693.92 1192.92 1691.52 1190.31 Q1689.14 1187.71 1685.21 1187.71 Q1680.75 1187.71 1678.06 1190.22 Q1675.4 1192.74 1675 1197.31 L1693.98 1197.28 Z" fill="#000000" fill-rule="nonzero" fill-opacity="1" /><path clip-path="url(#clip160)" d="M1728.7 1184.93 L1728.7 1189.96 Q1726.44 1188.81 1724.01 1188.23 Q1721.58 1187.65 1718.98 1187.65 Q1715.01 1187.65 1713.02 1188.86 Q1711.05 1190.08 1711.05 1192.51 Q1711.05 1194.36 1712.47 1195.43 Q1713.88 1196.47 1718.17 1197.43 L1719.99 1197.83 Q1725.66 1199.05 1728.03 1201.28 Q1730.43 1203.48 1730.43 1207.44 Q1730.43 1211.95 1726.85 1214.59 Q1723.29 1217.22 1717.04 1217.22 Q1714.43 1217.22 1711.6 1216.7 Q1708.79 1216.21 1705.67 1215.2 L1705.67 1209.7 Q1708.62 1211.23 1711.48 1212.01 Q1714.35 1212.76 1717.15 1212.76 Q1720.91 1212.76 1722.94 1211.49 Q1724.97 1210.19 1724.97 1207.85 Q1724.97 1205.68 1723.49 1204.52 Q1722.04 1203.36 1717.1 1202.29 L1715.24 1201.86 Q1710.3 1200.81 1708.1 1198.67 Q1705.9 1196.5 1705.9 1192.74 Q1705.9 1188.17 1709.14 1185.68 Q1712.38 1183.19 1718.34 1183.19 Q1721.29 1183.19 1723.9 1183.63 Q1726.5 1184.06 1728.7 1184.93 Z" fill="#000000" fill-rule="nonzero" fill-opacity="1" /><path clip-path="url(#clip160)" d="M1744.18 1174.77 L1744.18 1183.97 L1755.15 1183.97 L1755.15 1188.11 L1744.18 1188.11 L1744.18 1205.7 Q1744.18 1209.67 1745.25 1210.8 Q1746.35 1211.93 1749.68 1211.93 L1755.15 1211.93 L1755.15 1216.38 L1749.68 1216.38 Q1743.51 1216.38 1741.17 1214.1 Q1738.83 1211.78 1738.83 1205.7 L1738.83 1188.11 L1734.92 1188.11 L1734.92 1183.97 L1738.83 1183.97 L1738.83 1174.77 L1744.18 1174.77 Z" fill="#000000" fill-rule="nonzero" fill-opacity="1" /><path clip-path="url(#clip160)" d="M1780.93 1188.95 Q1780.03 1188.43 1778.96 1188.2 Q1777.92 1187.94 1776.64 1187.94 Q1772.13 1187.94 1769.7 1190.89 Q1767.3 1193.81 1767.3 1199.31 L1767.3 1216.38 L1761.94 1216.38 L1761.94 1183.97 L1767.3 1183.97 L1767.3 1189.01 Q1768.98 1186.06 1771.67 1184.64 Q1774.36 1183.19 1778.21 1183.19 Q1778.76 1183.19 1779.42 1183.28 Q1780.09 1183.34 1780.9 1183.48 L1780.93 1188.95 Z" fill="#000000" fill-rule="nonzero" fill-opacity="1" /><path clip-path="url(#clip160)" d="M1797.77 1187.71 Q1793.48 1187.71 1791 1191.06 Q1788.51 1194.39 1788.51 1200.21 Q1788.51 1206.02 1790.97 1209.38 Q1793.46 1212.71 1797.77 1212.71 Q1802.02 1212.71 1804.51 1209.35 Q1807 1205.99 1807 1200.21 Q1807 1194.45 1804.51 1191.09 Q1802.02 1187.71 1797.77 1187.71 M1797.77 1183.19 Q1804.71 1183.19 1808.67 1187.71 Q1812.64 1192.22 1812.64 1200.21 Q1812.64 1208.16 1808.67 1212.71 Q1804.71 1217.22 1797.77 1217.22 Q1790.79 1217.22 1786.83 1212.71 Q1782.89 1208.16 1782.89 1200.21 Q1782.89 1192.22 1786.83 1187.71 Q1790.79 1183.19 1797.77 1183.19 Z" fill="#000000" fill-rule="nonzero" fill-opacity="1" /><path clip-path="url(#clip160)" d="M1834.95 1219.39 Q1832.69 1225.18 1830.55 1226.94 Q1828.41 1228.71 1824.82 1228.71 L1820.57 1228.71 L1820.57 1224.25 L1823.69 1224.25 Q1825.89 1224.25 1827.11 1223.21 Q1828.32 1222.17 1829.8 1218.29 L1830.75 1215.86 L1817.64 1183.97 L1823.29 1183.97 L1833.41 1209.32 L1843.54 1183.97 L1849.18 1183.97 L1834.95 1219.39 Z" fill="#000000" fill-rule="nonzero" fill-opacity="1" /><path clip-path="url(#clip160)" d="M833.585 804.288 Q827.219 804.288 823.458 809.033 Q819.725 813.779 819.725 821.967 Q819.725 830.127 823.458 834.872 Q827.219 839.618 833.585 839.618 Q839.951 839.618 843.655 834.872 Q847.387 830.127 847.387 821.967 Q847.387 813.779 843.655 809.033 Q839.951 804.288 833.585 804.288 M841.774 842.743 L849.47 851.163 L842.41 851.163 L836.016 844.247 Q835.061 844.305 834.54 844.334 Q834.048 844.363 833.585 844.363 Q824.471 844.363 819.002 838.287 Q813.562 832.181 813.562 821.967 Q813.562 811.724 819.002 805.648 Q824.471 799.543 833.585 799.543 Q842.671 799.543 848.111 805.648 Q853.55 811.724 853.55 821.967 Q853.55 829.49 850.512 834.843 Q847.503 840.196 841.774 842.743 Z" fill="#000000" fill-rule="nonzero" fill-opacity="1" /><path clip-path="url(#clip160)" d="M856.704 800.324 L893.249 800.324 L893.249 805.243 L877.914 805.243 L877.914 843.524 L872.04 843.524 L872.04 805.243 L856.704 805.243 L856.704 800.324 Z" fill="#000000" fill-rule="nonzero" fill-opacity="1" /><path clip-path="url(#clip160)" d="M916.31 825.989 L916.31 828.593 L891.831 828.593 Q892.179 834.091 895.13 836.985 Q898.11 839.849 903.405 839.849 Q906.473 839.849 909.337 839.097 Q912.231 838.345 915.066 836.84 L915.066 841.875 Q912.202 843.09 909.192 843.726 Q906.183 844.363 903.087 844.363 Q895.333 844.363 890.79 839.849 Q886.276 835.335 886.276 827.639 Q886.276 819.681 890.558 815.023 Q894.87 810.335 902.161 810.335 Q908.701 810.335 912.491 814.56 Q916.31 818.756 916.31 825.989 M910.986 824.427 Q910.928 820.058 908.527 817.453 Q906.154 814.849 902.219 814.849 Q897.763 814.849 895.072 817.367 Q892.41 819.884 892.005 824.456 L910.986 824.427 Z" fill="#000000" fill-rule="nonzero" fill-opacity="1" /><path clip-path="url(#clip160)" d="M943.828 816.094 Q942.931 815.573 941.86 815.341 Q940.818 815.081 939.545 815.081 Q935.031 815.081 932.601 818.032 Q930.199 820.955 930.199 826.452 L930.199 843.524 L924.846 843.524 L924.846 811.117 L930.199 811.117 L930.199 816.151 Q931.877 813.2 934.568 811.782 Q937.259 810.335 941.108 810.335 Q941.658 810.335 942.323 810.422 Q942.989 810.48 943.799 810.625 L943.828 816.094 Z" fill="#000000" fill-rule="nonzero" fill-opacity="1" /><path clip-path="url(#clip160)" d="M973.602 817.338 Q975.598 813.75 978.376 812.043 Q981.154 810.335 984.915 810.335 Q989.979 810.335 992.728 813.894 Q995.477 817.425 995.477 823.964 L995.477 843.524 L990.124 843.524 L990.124 824.137 Q990.124 819.479 988.474 817.222 Q986.825 814.965 983.44 814.965 Q979.302 814.965 976.9 817.714 Q974.499 820.463 974.499 825.208 L974.499 843.524 L969.146 843.524 L969.146 824.137 Q969.146 819.45 967.496 817.222 Q965.847 814.965 962.404 814.965 Q958.324 814.965 955.922 817.743 Q953.521 820.492 953.521 825.208 L953.521 843.524 L948.168 843.524 L948.168 811.117 L953.521 811.117 L953.521 816.151 Q955.344 813.171 957.89 811.753 Q960.436 810.335 963.937 810.335 Q967.468 810.335 969.927 812.129 Q972.415 813.923 973.602 817.338 Z" fill="#000000" fill-rule="nonzero" fill-opacity="1" /><path clip-path="url(#clip160)" d="M855.324 1306.53 Q848.959 1306.53 845.197 1311.28 Q841.465 1316.02 841.465 1324.21 Q841.465 1332.37 845.197 1337.12 Q848.959 1341.86 855.324 1341.86 Q861.69 1341.86 865.394 1337.12 Q869.127 1332.37 869.127 1324.21 Q869.127 1316.02 865.394 1311.28 Q861.69 1306.53 855.324 1306.53 M863.513 1344.99 L871.21 1353.41 L864.15 1353.41 L857.755 1346.49 Q856.8 1346.55 856.279 1346.58 Q855.787 1346.61 855.324 1346.61 Q846.21 1346.61 840.741 1340.53 Q835.301 1334.42 835.301 1324.21 Q835.301 1313.97 840.741 1307.89 Q846.21 1301.79 855.324 1301.79 Q864.41 1301.79 869.85 1307.89 Q875.29 1313.97 875.29 1324.21 Q875.29 1331.73 872.251 1337.09 Q869.242 1342.44 863.513 1344.99 Z" fill="#000000" fill-rule="nonzero" fill-opacity="1" /><path clip-path="url(#clip160)" d="M898.872 1308.32 L890.944 1329.82 L906.829 1329.82 L898.872 1308.32 M895.573 1302.57 L902.199 1302.57 L918.663 1345.77 L912.587 1345.77 L908.652 1334.68 L889.178 1334.68 L885.243 1345.77 L879.08 1345.77 L895.573 1302.57 Z" fill="#000000" fill-rule="nonzero" fill-opacity="1" /><path clip-path="url(#clip160)" d="M945.023 1318.28 L945.023 1300.74 L950.347 1300.74 L950.347 1345.77 L945.023 1345.77 L945.023 1340.91 Q943.345 1343.8 940.77 1345.22 Q938.223 1346.61 934.635 1346.61 Q928.762 1346.61 925.058 1341.92 Q921.383 1337.23 921.383 1329.59 Q921.383 1321.95 925.058 1317.27 Q928.762 1312.58 934.635 1312.58 Q938.223 1312.58 940.77 1314 Q943.345 1315.39 945.023 1318.28 M926.881 1329.59 Q926.881 1335.47 929.282 1338.82 Q931.713 1342.15 935.937 1342.15 Q940.162 1342.15 942.593 1338.82 Q945.023 1335.47 945.023 1329.59 Q945.023 1323.72 942.593 1320.39 Q940.162 1317.03 935.937 1317.03 Q931.713 1317.03 929.282 1320.39 Q926.881 1323.72 926.881 1329.59 Z" fill="#000000" fill-rule="nonzero" fill-opacity="1" /><path clip-path="url(#clip160)" d="M982.639 1318.28 L982.639 1300.74 L987.963 1300.74 L987.963 1345.77 L982.639 1345.77 L982.639 1340.91 Q980.96 1343.8 978.385 1345.22 Q975.839 1346.61 972.251 1346.61 Q966.377 1346.61 962.673 1341.92 Q958.999 1337.23 958.999 1329.59 Q958.999 1321.95 962.673 1317.27 Q966.377 1312.58 972.251 1312.58 Q975.839 1312.58 978.385 1314 Q980.96 1315.39 982.639 1318.28 M964.496 1329.59 Q964.496 1335.47 966.898 1338.82 Q969.329 1342.15 973.553 1342.15 Q977.778 1342.15 980.208 1338.82 Q982.639 1335.47 982.639 1329.59 Q982.639 1323.72 980.208 1320.39 Q977.778 1317.03 973.553 1317.03 Q969.329 1317.03 966.898 1320.39 Q964.496 1323.72 964.496 1329.59 Z" fill="#000000" fill-rule="nonzero" fill-opacity="1" /><path clip-path="url(#clip160)" d="M610.885 1142.08 Q604.519 1142.08 600.758 1146.82 Q597.025 1151.57 597.025 1159.76 Q597.025 1167.92 600.758 1172.66 Q604.519 1177.41 610.885 1177.41 Q617.251 1177.41 620.955 1172.66 Q624.687 1167.92 624.687 1159.76 Q624.687 1151.57 620.955 1146.82 Q617.251 1142.08 610.885 1142.08 M619.074 1180.53 L626.771 1188.95 L619.71 1188.95 L613.316 1182.04 Q612.361 1182.1 611.84 1182.13 Q611.348 1182.15 610.885 1182.15 Q601.771 1182.15 596.302 1176.08 Q590.862 1169.97 590.862 1159.76 Q590.862 1149.52 596.302 1143.44 Q601.771 1137.33 610.885 1137.33 Q619.971 1137.33 625.411 1143.44 Q630.85 1149.52 630.85 1159.76 Q630.85 1167.28 627.812 1172.64 Q624.803 1177.99 619.074 1180.53 Z" fill="#000000" fill-rule="nonzero" fill-opacity="1" /><path clip-path="url(#clip160)" d="M639.994 1138.12 L648.703 1138.12 L659.728 1167.51 L670.81 1138.12 L679.519 1138.12 L679.519 1181.32 L673.819 1181.32 L673.819 1143.38 L662.679 1173.01 L656.805 1173.01 L645.665 1143.38 L645.665 1181.32 L639.994 1181.32 L639.994 1138.12 Z" fill="#000000" fill-rule="nonzero" fill-opacity="1" /><path clip-path="url(#clip160)" d="M690.341 1168.53 L690.341 1148.91 L695.665 1148.91 L695.665 1168.32 Q695.665 1172.92 697.459 1175.24 Q699.253 1177.53 702.841 1177.53 Q707.152 1177.53 709.64 1174.78 Q712.158 1172.03 712.158 1167.28 L712.158 1148.91 L717.482 1148.91 L717.482 1181.32 L712.158 1181.32 L712.158 1176.34 Q710.219 1179.29 707.644 1180.74 Q705.098 1182.15 701.712 1182.15 Q696.128 1182.15 693.234 1178.68 Q690.341 1175.21 690.341 1168.53 M703.738 1148.13 L703.738 1148.13 Z" fill="#000000" fill-rule="nonzero" fill-opacity="1" /><path clip-path="url(#clip160)" d="M728.448 1136.29 L733.772 1136.29 L733.772 1181.32 L728.448 1181.32 L728.448 1136.29 Z" fill="#000000" fill-rule="nonzero" fill-opacity="1" /></svg>
